<svg width="846" height="405" viewBox="0 0 846 405" fill="none" xmlns="http://www.w3.org/2000/svg">
<g clip-path="url(#clip0_277_332)">
<path d="M845.138 13.579V391.421C845.138 392.421 845.032 393.418 844.82 394.395C844.203 397.376 842.584 400.054 840.232 401.984C837.88 403.914 834.938 404.978 831.897 405H13.1983C10.5482 404.984 7.96469 404.168 5.78527 402.659C3.60585 401.15 1.9319 399.018 0.982135 396.542C0.330346 394.914 -0.00305706 393.175 1.69879e-05 391.421V13.579C-0.0250443 11.82 0.296538 10.0732 0.946385 8.43853C1.59623 6.8039 2.56161 5.31344 3.78732 4.05236C5.01304 2.79129 6.47507 1.7843 8.08986 1.08898C9.70465 0.393647 11.4405 0.0236103 13.1983 0H831.94C833.698 0.0236103 835.434 0.393647 837.049 1.08898C838.663 1.7843 840.125 2.79129 841.351 4.05236C842.577 5.31344 843.542 6.8039 844.192 8.43853C844.842 10.0732 845.164 11.82 845.138 13.579Z" fill="#F2F2F2"/>
<path opacity="0.03" d="M579.794 38.7972H264.483V394.007H579.794V38.7972Z" fill="black"/>
<path opacity="0.03" d="M391.452 86.2161H318.43C311.474 86.2161 305.835 91.8594 305.835 98.8209V258.114C305.835 265.075 311.474 270.718 318.43 270.718H391.452C398.408 270.718 404.047 265.075 404.047 258.114V98.8209C404.047 91.8594 398.408 86.2161 391.452 86.2161Z" fill="black"/>
<path opacity="0.03" d="M452.825 270.719H525.847C532.803 270.719 538.442 265.075 538.442 258.114V98.8209C538.442 91.8595 532.803 86.2161 525.847 86.2161H452.825C445.869 86.2161 440.23 91.8595 440.23 98.8209V258.114C440.23 265.075 445.869 270.719 452.825 270.719Z" fill="black"/>
<path opacity="0.03" d="M231.211 44.8324H39.3019C29.9668 44.8324 22.3992 52.4058 22.3992 61.748V253.803C22.3992 263.145 29.9668 270.719 39.3019 270.719H231.211C240.546 270.719 248.114 263.145 248.114 253.803V61.748C248.114 52.4058 240.546 44.8324 231.211 44.8324Z" fill="black"/>
<path opacity="0.03" d="M613.066 270.719H804.975C814.31 270.719 821.878 263.145 821.878 253.803V61.748C821.878 52.4058 814.31 44.8324 804.975 44.8324L613.066 44.8324C603.731 44.8324 596.163 52.4058 596.163 61.748V253.803C596.163 263.145 603.731 270.719 613.066 270.719Z" fill="black"/>
<path d="M361.109 86.2161L305.835 146.774V165.44L374.428 86.2161H361.109Z" fill="#F2F2F2"/>
<path d="M404.047 148.55L305.835 244.543L306.266 261.666L404.478 165.44L404.047 148.55Z" fill="#F2F2F2"/>
<path d="M495.504 86.2161L440.23 146.774V165.44L508.823 86.2161H495.504Z" fill="#F2F2F2"/>
<path d="M538.442 148.55L440.23 244.543L440.661 261.666L538.873 165.44L538.442 148.55Z" fill="#F2F2F2"/>
<path d="M97.3244 44.8324L22.3992 130.781V185.882L135.257 44.8324H97.3244Z" fill="#F2F2F2"/>
<path d="M196.803 44.8324L22.3992 216.402V229.438L219.891 44.8324H196.803Z" fill="#F2F2F2"/>
<path d="M672.38 45.2634L597.455 131.212V186.313L710.313 45.2634H672.38Z" fill="#F2F2F2"/>
<path d="M771.859 45.2634L597.455 216.833V229.869L794.947 45.2634H771.859Z" fill="#F2F2F2"/>
<path d="M248.114 245.992V253.803C248.114 258.289 246.333 262.592 243.163 265.764C239.994 268.936 235.694 270.718 231.211 270.718H202.558C201.696 269.908 200.895 269.089 200.076 268.253C196.579 264.675 193.038 260.683 190.833 255.76C187.585 248.526 187.791 240.396 187.964 233.87C187.964 233.24 188.007 232.62 188.024 231.982C185.505 236.338 181.737 239.837 177.207 242.025C172.677 244.213 167.596 244.989 162.62 244.252C157.645 243.515 153.005 241.3 149.303 237.893C145.6 234.486 143.006 230.045 141.856 225.145C141.319 222.887 141.104 220.565 141.218 218.247C141.365 214.964 142.158 211.742 143.55 208.765C144.943 205.789 146.908 203.116 149.334 200.901L158.457 209.66L154.02 197.504C157 195.825 160.292 194.774 163.693 194.415C167.094 194.057 170.532 194.398 173.797 195.419C177.061 196.44 180.082 198.118 182.674 200.351C185.266 202.583 187.374 205.323 188.868 208.401C189.138 202.177 189.445 195.963 189.79 189.762H189.687C189.161 189.675 188.636 189.563 188.127 189.451L187.266 189.227C186.792 189.089 186.318 188.951 185.862 188.796L185 188.494C184.535 188.322 184.07 188.115 183.622 187.908C183.375 187.811 183.133 187.702 182.898 187.58C182.338 187.313 181.804 187.029 181.27 186.718C181.149 186.649 181.029 186.589 180.908 186.511C180.27 186.123 179.659 185.709 179.064 185.27C178.858 185.132 178.668 184.959 178.479 184.813C178.082 184.502 177.695 184.183 177.324 183.864L176.669 183.252C176.342 182.942 176.023 182.623 175.722 182.304C175.42 181.985 175.291 181.847 175.084 181.597C174.877 181.347 174.507 180.933 174.223 180.58L173.663 179.855C173.37 179.45 173.094 179.045 172.801 178.622C172.663 178.416 172.517 178.209 172.388 177.993C172.017 177.372 171.673 176.743 171.354 176.088C171.233 175.838 171.13 175.57 171.018 175.329C170.82 174.898 170.63 174.467 170.458 174.01C170.337 173.717 170.242 173.406 170.13 173.087C170.018 172.768 169.863 172.277 169.743 171.846C169.622 171.415 169.571 171.199 169.484 170.863C169.484 170.691 169.39 170.51 169.355 170.337C168.202 165.136 168.742 159.703 170.897 154.832C173.052 149.96 176.708 145.907 181.33 143.265L186.947 154.387L186.783 140.92C192.41 139.265 198.438 139.633 203.821 141.96C209.204 144.288 213.604 148.428 216.256 153.663L216.333 153.853C216.454 154.085 216.557 154.31 216.669 154.551C216.867 154.999 217.065 155.413 217.238 155.913C217.324 156.12 217.41 156.31 217.488 156.517C217.712 157.146 217.901 157.775 218.082 158.422C218.142 158.638 218.194 158.862 218.246 159.077C218.392 159.672 218.513 160.267 218.616 160.871C218.616 160.983 218.616 161.086 218.685 161.207C218.788 161.914 218.857 162.647 218.909 163.379C218.909 163.569 218.909 163.742 218.909 163.94C218.909 164.699 218.952 165.449 218.909 166.216C218.631 172.186 216.232 177.861 212.145 182.219C208.057 186.577 202.55 189.331 196.613 189.986C195.752 204.711 195.157 219.48 194.778 234.12C194.589 241.526 194.64 247.613 197.044 252.975C198.325 255.651 199.998 258.121 202.006 260.304C202.006 259.838 202.006 259.364 202.006 258.89C202.159 255.593 202.959 252.359 204.361 249.372C205.763 246.384 207.739 243.703 210.177 241.48C212.614 239.258 215.466 237.538 218.568 236.418C221.67 235.299 224.962 234.802 228.256 234.956H228.325L234.011 246.224L233.882 235.879C239.681 237.44 244.73 241.027 248.114 245.992Z" fill="#F2F2F2"/>
<path opacity="0.03" d="M427.308 38.7972H416.969V394.007H427.308V38.7972Z" fill="black"/>
<path d="M844.82 394.395C844.203 397.376 842.584 400.054 840.232 401.984C837.88 403.914 834.938 404.978 831.897 405H13.1983C10.5483 404.984 7.96473 404.168 5.78531 402.659C3.6059 401.15 1.93195 399.018 0.982178 396.542C38.139 387.119 136.713 379.489 264.483 375.928C271.599 375.721 278.804 375.537 286.098 375.376H287.451C289.174 375.333 290.983 375.307 292.757 375.255C300.505 375.089 308.345 374.931 316.277 374.781L319.016 374.729L328.407 374.566L331.749 374.514C338.348 374.41 345.005 374.319 351.719 374.238C372.99 373.979 394.794 373.824 416.969 373.798H436.388C442.528 373.798 448.638 373.798 454.721 373.798L473.036 373.919C510.176 374.169 545.954 374.781 579.794 375.643L593.148 376.014C599.54 376.187 605.858 376.376 612.101 376.583C719.979 380.032 804.553 386.472 844.82 394.395Z" fill="#3F3D56"/>
<path d="M248.545 295.29C248.545 300.523 244.754 304.774 240.085 304.774H31.29C26.6206 304.774 22.83 300.523 22.83 295.29C22.83 290.048 26.6206 285.806 31.29 285.806H240.085C244.754 285.806 248.545 290.048 248.545 295.29Z" fill="#3F3D56"/>
<path d="M474.415 94.3031H444.383V146.162H474.415V94.3031Z" fill="#3F3D56"/>
<path opacity="0.1" d="M474.415 94.3031H444.383V146.162H474.415V94.3031Z" fill="black"/>
<path d="M592.01 136.721C593.802 135.644 596.025 135.713 598.119 135.859C599.372 135.82 600.617 136.087 601.745 136.635C603.899 137.937 604.227 140.877 604.33 143.395C604.433 146.395 604.433 149.723 602.435 152.016C600.85 153.801 598.377 154.456 596.025 154.87C594.369 155.045 592.748 155.457 591.209 156.094C589.685 156.987 588.278 158.067 587.022 159.31C584.222 161.698 580.501 164.043 576.831 164.621C574.367 159.646 573.729 154.878 577.58 150.602C579.708 148.24 582.456 146.421 584.765 144.231C587.074 142.041 589.193 138.42 592.01 136.721Z" fill="#A0616A"/>
<path d="M450.568 388.973C450.144 390.008 449.939 391.121 449.965 392.24C450.206 394.827 452.765 396.456 455.134 397.534C458.305 398.991 462.302 400.06 465.059 397.913C468.126 395.525 467.643 390.852 468.841 387.145C469.547 384.981 470.874 383.075 471.744 380.972C474.13 375.204 472.873 368.643 471.58 362.539L469.694 353.65C469.614 352.945 469.313 352.283 468.832 351.762C467.445 350.546 460.941 350.106 459.287 351.262C456.642 353.098 457.279 359.297 456.857 362.211C455.558 371.301 453.454 380.256 450.568 388.973Z" fill="#575A89"/>
<path d="M440.575 388.973C440.995 390.01 441.2 391.121 441.178 392.24C440.936 394.827 438.378 396.456 436.009 397.534C432.838 398.991 428.832 400.06 426.084 397.913C423.017 395.525 423.5 390.852 422.293 387.145C421.596 384.981 420.269 383.075 419.399 380.972C417.004 375.204 418.27 368.643 419.562 362.539L421.449 353.65C421.528 352.945 421.83 352.283 422.311 351.762C423.698 350.546 430.202 350.106 431.856 351.262C434.492 353.098 433.855 359.297 434.277 362.211C435.579 371.301 437.686 380.257 440.575 388.973Z" fill="#575A89"/>
<path d="M462.405 122.315C462.89 122.813 463.237 123.427 463.413 124.099C463.724 125.72 462.216 127.151 460.674 127.738C459.132 128.324 457.409 128.462 456.013 129.35C454.582 130.422 453.546 131.938 453.067 133.661C450.138 141.903 453.403 152.292 461.173 156.301C466.532 159.069 472.907 158.638 478.92 158.137C479.764 158.119 480.597 157.943 481.376 157.62C482.166 157.169 482.848 156.551 483.375 155.81C486.747 151.534 489.083 146.534 490.201 141.203C491.319 135.872 491.188 130.354 489.819 125.082C489.731 124.642 489.558 124.223 489.31 123.849C487.76 121.72 484.021 124.341 481.824 122.892C481.15 122.357 480.644 121.639 480.368 120.823C478.859 117.281 477.82 113.556 477.275 109.744C477.206 109.279 467.419 113.029 466.584 113.443C463.25 115.167 463.077 113.581 460.605 116.4C463.258 117.142 460.209 119.78 462.405 122.315Z" fill="#A0616A"/>
<path opacity="0.1" d="M462.405 122.315C462.89 122.813 463.237 123.427 463.413 124.099C463.724 125.72 462.216 127.151 460.674 127.738C459.132 128.324 457.409 128.462 456.013 129.35C454.582 130.422 453.546 131.938 453.067 133.661C450.138 141.903 453.403 152.292 461.173 156.301C466.532 159.069 472.907 158.638 478.92 158.137C479.764 158.119 480.597 157.943 481.376 157.62C482.166 157.169 482.848 156.551 483.375 155.81C486.747 151.534 489.083 146.534 490.201 141.203C491.319 135.872 491.188 130.354 489.819 125.082C489.731 124.642 489.558 124.223 489.31 123.849C487.76 121.72 484.021 124.341 481.824 122.892C481.15 122.357 480.644 121.639 480.368 120.823C478.859 117.281 477.82 113.556 477.275 109.744C477.206 109.279 467.419 113.029 466.584 113.443C463.25 115.167 463.077 113.581 460.605 116.4C463.258 117.142 460.209 119.78 462.405 122.315Z" fill="black"/>
<path d="M428.04 225.11C428.614 230.663 429.019 236.226 429.255 241.802C429.504 247.156 429.608 252.639 427.98 257.743C427.118 260.605 425.645 263.278 424.878 266.175C424.017 269.58 424.017 273.15 424.06 276.676C423.998 278.704 424.189 280.731 424.628 282.711C425.102 284.513 425.981 286.16 426.627 287.884C428.953 294.066 428.419 300.92 427.618 307.472C426.11 319.801 423.758 332.01 421.406 344.2L417.159 366.306C421.788 368.212 426.605 369.625 431.529 370.522C434.579 371.074 438.559 370.971 439.773 368.108C440.175 366.797 440.237 365.406 439.954 364.065C439.279 357.921 439.991 351.704 442.039 345.873C443.711 341.14 446.235 336.717 447.518 331.863C448.252 328.802 448.696 325.679 448.845 322.534C449.241 317.017 449.408 311.49 449.345 305.955C449.259 298.489 448.785 290.841 451.016 283.711C453.937 274.383 461.415 266.071 460.544 256.329C460.725 267.063 460.915 277.805 460.191 288.514C459.74 292.947 459.567 297.405 459.674 301.86C460.036 308.386 461.923 314.973 460.536 321.37C459.967 323.957 458.882 326.457 458.597 329.13C458.149 333.286 459.717 337.648 458.33 341.597C457.133 345.045 453.799 347.77 453.902 351.4C453.971 354.115 456.082 356.435 458.546 357.581C461.01 358.728 463.784 358.918 466.489 359.09C469.418 359.28 472.967 359.159 474.441 356.616C476.241 353.52 473.39 349.865 472.855 346.33C472.321 342.795 474.208 339.346 475.897 336.174C485.422 318.258 490.648 298.369 491.162 278.081C491.309 271.951 491.025 265.813 491.059 259.683C491.126 245.615 492.861 231.604 496.228 217.946C473.166 217.066 449.801 217.282 428.04 225.11Z" fill="#3C354C"/>
<path d="M464.998 122.306C474.595 122.306 482.375 114.521 482.375 104.916C482.375 95.3123 474.595 87.5266 464.998 87.5266C455.402 87.5266 447.622 95.3123 447.622 104.916C447.622 114.521 455.402 122.306 464.998 122.306Z" fill="#A0616A"/>
<path d="M478.266 130.272C476.388 133.669 474.053 137.058 470.581 138.808C467.109 140.558 462.259 140.11 460.079 136.885C458.434 134.445 458.399 130.781 455.841 129.35C453.79 128.203 451.059 129.272 449.638 131.143C448.216 133.014 447.794 135.454 447.519 137.765C446.943 143.585 446.741 149.437 446.916 155.284C447.277 183.778 449.552 212.247 449.19 240.75C449.206 245.204 448.95 249.656 448.423 254.079C458.908 251.423 469.461 248.768 480.299 248.095C485.528 247.776 490.792 247.923 495.978 247.233C499.541 246.683 503.07 245.935 506.549 244.992C507.016 244.923 507.451 244.716 507.798 244.397C508.072 244.014 508.222 243.557 508.229 243.086C509.297 233.008 505.774 223.084 504.214 213.074C502.75 203.737 503.008 194.202 501.75 184.83C500.027 171.682 495.281 158.879 495.384 145.61C495.384 140.791 496.09 135.894 495.022 131.186C494.161 127.307 491.171 122.134 486.838 121.375C482.039 120.53 480.075 127.005 478.266 130.272Z" fill="#1A7FA9"/>
<path d="M476.336 136.592C471.02 147.188 465.619 158.017 463.887 169.759C462.328 180.347 463.827 191.184 462.543 201.806C460.898 215.445 454.729 229.326 458.916 242.414C459.847 245.336 461.268 248.078 462.259 250.975C466.567 263.7 462.259 277.883 465.042 291.04C465.068 291.376 465.171 291.701 465.343 291.991C465.515 292.281 465.751 292.528 466.032 292.712C466.765 293.031 467.566 292.497 468.333 292.255C471.649 291.195 473.932 295.411 476.56 297.704C477.878 298.821 479.495 299.527 481.209 299.735C482.924 299.943 484.662 299.645 486.209 298.877C491.128 296.342 492.438 290.031 493.101 284.539C496.403 258.272 498.414 231.881 499.131 205.367C499.295 199.331 499.381 193.296 498.391 187.347C497.193 180.131 494.436 173.268 492.954 166.112C490.577 154.594 491.567 142.688 492.214 130.945C492.395 127.496 491.43 117.564 485.58 120.806C481.083 123.298 478.516 132.255 476.336 136.592Z" fill="#575A89"/>
<path opacity="0.1" d="M449.646 166.38C449.595 170.139 449.534 173.958 448.38 177.536C447.226 181.114 445.003 184.287 443.211 187.632C438.903 195.823 437.344 205.203 437.129 214.445C436.913 223.688 437.99 232.913 438.705 242.129C439.789 256.155 440.034 270.234 439.438 284.289C445.199 282.268 451.43 282.007 457.34 283.539C460.786 284.401 464.895 285.815 467.592 283.47C469.513 281.797 469.745 278.943 469.832 276.4C470.745 250.483 471.032 224.555 470.693 198.616C470.576 195.216 470.671 191.813 470.977 188.425C471.262 185.839 471.839 183.2 471.839 180.562C471.839 176.855 470.848 173.234 469.84 169.665L460.751 137.428C460.157 135.307 459.519 133.118 458.046 131.462C456.573 129.807 452.119 127.617 450.387 129.738C448.888 131.6 450 137.98 449.974 140.274L449.646 166.38Z" fill="black"/>
<path d="M448.475 165.785C448.423 169.544 448.354 173.372 447.2 176.95C446.045 180.528 443.831 183.692 442.031 187.046C437.723 195.236 436.164 204.617 435.948 213.859C435.733 223.101 436.81 232.326 437.525 241.543C438.609 255.566 438.853 269.642 438.257 283.694C444.022 281.678 450.255 281.417 456.168 282.944C459.614 283.849 463.715 285.229 466.411 282.884C468.332 281.211 468.565 278.357 468.66 275.805C469.567 249.889 469.854 223.961 469.521 198.021C469.402 194.625 469.494 191.224 469.797 187.839C470.221 185.235 470.508 182.61 470.658 179.976C470.658 176.269 469.676 172.639 468.668 169.078L459.58 136.842C458.976 134.713 458.339 132.531 456.866 130.867C455.393 129.203 450.939 127.031 449.207 129.186C447.717 131.04 448.828 137.428 448.793 139.713L448.475 165.785Z" fill="#575A89"/>
<path d="M452.145 126.289C447.45 126.763 443.84 130.816 442.005 135.161C440.17 139.506 439.636 144.283 438.24 148.783C435.802 156.586 430.745 163.621 429.927 171.751C429.168 179.424 432.304 187.21 430.788 194.762C430.316 196.786 429.708 198.777 428.97 200.72C426.041 209.298 424.37 218.247 422.699 227.162L420.217 240.431C418.494 249.785 416.711 259.398 418.313 268.77C419.975 267.575 421.999 266.993 424.041 267.123C426.083 267.254 428.017 268.089 429.513 269.486C430.375 270.287 431.09 271.305 432.218 271.477C434.157 271.753 435.345 269.442 435.854 267.554C437.683 260.811 438.909 253.918 439.515 246.957C439.843 243.181 439.998 239.353 441.109 235.749C441.815 233.482 442.832 231.352 443.607 229.102C445.33 223.782 445.098 218.058 445.813 212.514C446.424 207.712 447.743 203.03 448.492 198.254C449.265 192.436 449.607 186.569 449.517 180.7L449.853 146.929C449.896 142.558 450.189 137.618 453.515 134.79C455.238 133.35 459.709 132.023 459.295 129.315C458.89 126.772 454.075 126.1 452.145 126.289Z" fill="#F97316"/>
<path d="M479.903 123.177C484.934 119.392 490.491 115.417 496.788 115.573C498.874 115.701 500.94 116.06 502.948 116.642L517.197 120.202C515.778 122.636 513.663 124.588 511.124 125.806C513.435 125.408 515.812 125.809 517.866 126.941C519.92 128.074 521.528 129.872 522.427 132.04C524.417 137.265 521.798 142.989 519.48 148.085C515.517 156.784 512.226 166.044 512.261 175.614C512.261 180.467 508.91 185.27 508.582 190.115C508.344 193.15 508.594 196.204 509.323 199.159C510.193 202.04 511.276 204.853 512.562 207.574C521.289 228.076 523.271 250.88 522.306 273.15H502.853C501.777 273.085 500.699 273.222 499.674 273.555C498.451 274.029 497.529 275.029 496.444 275.771C494.576 277.037 492.285 277.514 490.068 277.098C487.992 267.615 491.274 257.976 492.894 248.44C493.708 243.217 494.228 237.953 494.453 232.671C494.907 224.303 495.137 215.92 495.143 207.522C495.143 201.177 494.988 194.702 492.894 188.718C491.86 185.753 490.361 182.95 489.388 179.959C488.513 176.958 487.908 173.885 487.579 170.777C485.408 154.749 482.074 139.187 479.903 123.177Z" fill="#F97316"/>
<path d="M438.318 136.592C436.853 137.661 436.422 139.61 435.776 141.308C434.157 145.567 430.719 148.843 428.462 152.792C427.167 155.225 426.094 157.77 425.257 160.396C422.268 168.932 419.227 177.838 420.295 186.813C420.536 188.822 421.044 190.926 422.466 192.365C425.576 195.495 431.322 193.564 433.726 189.856C436.129 186.149 436.267 181.493 436.75 177.114C437.663 168.768 440.084 160.733 441.919 152.542C442.917 148.433 443.642 144.263 444.09 140.058C444.219 138.765 444.951 135.885 443.728 135.066C442.961 134.549 439.033 136.109 438.318 136.592Z" fill="#F97316"/>
<path d="M533.325 159.586C535.47 162.172 538.08 164.905 541.406 164.819C543.054 164.643 544.644 164.11 546.066 163.259C557.241 157.678 568.863 153.044 580.811 149.404C579.481 152.466 579.13 155.865 579.807 159.135C580.485 162.404 582.156 165.384 584.593 167.664C574.512 170.244 564.81 174.128 555.732 179.217C553.806 180.212 552.019 181.456 550.417 182.916C549.386 184.116 548.275 185.245 547.091 186.296C544.455 188.313 540.88 188.451 537.555 188.503C535.595 188.753 533.604 188.583 531.715 188.005C529.826 187.427 528.081 186.453 526.596 185.149L502.801 168.121C502.418 167.958 502.081 167.703 501.819 167.378C501.557 167.053 501.379 166.669 501.301 166.259C501.223 165.849 501.246 165.427 501.37 165.028C501.493 164.63 501.713 164.268 502.009 163.974L509.538 150.533C511.261 147.49 513.2 142.455 517.24 141.912C521.281 141.368 522.763 145.714 524.675 148.559C527.352 152.392 530.24 156.073 533.325 159.586Z" fill="#F97316"/>
<path d="M428.004 130.408L419.784 133.66C417.97 134.378 417.081 136.431 417.798 138.247L427.325 162.365C428.042 164.18 430.094 165.07 431.908 164.352L440.129 161.1C441.943 160.383 442.832 158.329 442.115 156.514L432.588 132.396C431.871 130.58 429.819 129.69 428.004 130.408Z" fill="#3F3D56"/>
<path opacity="0.1" d="M428.004 130.408L419.784 133.66C417.97 134.378 417.081 136.431 417.798 138.247L427.325 162.365C428.042 164.18 430.094 165.07 431.908 164.352L440.129 161.1C441.943 160.383 442.832 158.329 442.115 156.514L432.588 132.396C431.871 130.58 429.819 129.69 428.004 130.408Z" fill="black"/>
<path d="M426.821 130.991L418.601 134.243C416.787 134.961 415.897 137.014 416.614 138.83L426.141 162.947C426.859 164.763 428.911 165.653 430.725 164.935L438.945 161.683C440.759 160.965 441.648 158.912 440.931 157.096L431.404 132.979C430.687 131.163 428.635 130.273 426.821 130.991Z" fill="#3F3D56"/>
<path d="M427.6 144.395C428.738 144.395 429.66 143.472 429.66 142.334C429.66 141.196 428.738 140.274 427.6 140.274C426.463 140.274 425.542 141.196 425.542 142.334C425.542 143.472 426.463 144.395 427.6 144.395Z" fill="#1A7FA9"/>
<path d="M421.759 162.534C420.691 161.207 419.356 160.103 418.417 158.689C417.309 156.795 416.638 154.677 416.453 152.49C416.115 150.105 415.928 147.7 415.893 145.291C415.888 144.972 415.956 144.655 416.092 144.366C416.228 144.077 416.429 143.822 416.678 143.623C416.927 143.423 417.219 143.283 417.531 143.214C417.843 143.144 418.167 143.147 418.477 143.222C421.913 144.037 425.01 145.906 427.333 148.567C430.169 151.915 431.986 156.005 432.571 160.353C432.864 162.586 433.028 164.835 433.062 167.087L433.373 176.32C431.124 176.32 427.85 176.95 425.697 176.32C422.604 175.458 423.853 176.001 424.163 172.958C424.516 169.164 424.258 165.638 421.759 162.534Z" fill="#A0616A"/>
<path d="M427.833 172.406C426.596 172.515 425.351 172.344 424.189 171.906C421.828 170.915 420.476 168.458 419.304 166.19C419.501 171.143 419.247 176.104 418.546 181.011C418.098 183.597 417.4 186.184 417.46 188.83C417.556 192.183 418.873 195.384 421.165 197.831C421.791 198.547 422.568 199.115 423.439 199.495C425.3 200.228 427.419 199.547 429.125 198.512C431.603 197.008 433.569 194.79 434.768 192.15C436.491 188.322 436.405 184.106 436.491 180.002C436.577 176.165 437.809 172.139 437.74 168.458C434.759 168.104 431.46 172.217 427.833 172.406Z" fill="#F97316"/>
<path d="M445.132 98.8122C448.161 100.412 451.499 101.339 454.919 101.529C458.339 101.72 461.759 101.169 464.947 99.9157C463.939 104.321 466.248 108.718 467.445 113.081C470.598 124.574 465.722 137.058 457.969 146.084C461.562 146.444 465.19 145.991 468.585 144.76C471.98 143.529 475.056 141.551 477.585 138.972C475.379 144.905 472.096 150.38 467.902 155.12C482.814 150.473 493.463 136.635 498.244 121.754C501.897 110.357 502.551 97.5621 497.572 86.6902C492.592 75.8184 481.152 67.5157 469.237 68.4986C460.544 69.2142 452.593 74.7665 448.173 82.2932C443.754 89.8198 442.746 99.0364 444.538 107.658L445.132 98.8122Z" fill="#3F3D56"/>
<path opacity="0.1" d="M467.48 113.081C469.055 119.301 468.673 125.856 466.385 131.85C469.461 124.953 470.641 117.349 468.66 110.132C467.462 105.77 465.145 101.373 466.153 96.9672C462.965 98.2218 459.545 98.7727 456.125 98.5822C452.705 98.3918 449.367 97.4644 446.338 95.8636L446.097 99.3123C449.044 100.712 452.247 101.49 455.507 101.6C458.768 101.71 462.016 101.148 465.05 99.9503C463.973 104.321 466.282 108.718 467.48 113.081Z" fill="black"/>
<path opacity="0.1" d="M446.786 85.0436C443.661 92.1529 442.874 100.072 444.538 107.658L445.063 100.261C444.555 95.1235 445.142 89.9367 446.786 85.0436Z" fill="black"/>
<path opacity="0.1" d="M478.8 136.023C476.398 138.465 473.506 140.369 470.315 141.61C467.123 142.851 463.705 143.401 460.286 143.222C459.554 144.214 458.796 145.171 458.003 146.084C461.58 146.441 465.192 145.993 468.574 144.773C471.957 143.552 475.023 141.591 477.551 139.032C477.999 138.041 478.421 137.04 478.8 136.023Z" fill="black"/>
<path opacity="0.1" d="M470.771 151.628C469.909 152.844 468.936 154.016 467.936 155.146C481.97 150.775 492.231 138.256 497.365 124.393C492.153 136.489 482.978 147.154 470.771 151.628Z" fill="black"/>
<path d="M612.101 36.6418V0.43103H593.148V381.506C593.148 384.021 594.146 386.434 595.923 388.212C597.701 389.991 600.111 390.99 602.624 390.99C605.138 390.99 607.548 389.991 609.325 388.212C611.102 386.434 612.101 384.021 612.101 381.506V55.6093H658.622V82.4656C642.099 83.5002 629.331 90.3716 629.331 98.7174C629.331 106.391 640.186 112.848 654.823 114.616C657.513 114.937 660.22 115.098 662.93 115.098C681.487 115.098 696.529 107.753 696.529 98.7174C696.529 92.5098 689.464 87.1127 679.04 84.3365C675.176 83.3276 671.223 82.7009 667.237 82.4656V55.6093H762.003V82.4656C759.343 82.6312 756.696 82.9624 754.077 83.4571C741.568 85.8453 732.712 91.777 732.712 98.7174C732.718 100.052 733.04 101.367 733.651 102.554C737.192 109.744 750.468 115.098 766.311 115.098C784.867 115.098 799.909 107.753 799.909 98.7174C799.909 90.3716 787.142 83.5002 770.618 82.4656V55.6093H846V36.6418H612.101ZM793.017 98.7174C793.017 105.899 781.06 111.727 766.311 111.727C751.562 111.727 739.604 105.899 739.604 98.7174C739.603 98.0252 739.717 97.3378 739.94 96.6826C740.853 93.803 743.696 91.251 747.788 89.3457C752.668 87.1996 757.909 85.9917 763.235 85.7849H769.386C782.688 86.5178 793.017 92.0356 793.017 98.7174ZM676.516 87.5093C684.373 89.794 689.637 93.9582 689.637 98.7174C689.637 105.899 677.679 111.727 662.93 111.727C661.068 111.73 659.208 111.635 657.356 111.443C645.295 110.201 636.223 104.977 636.223 98.7174C636.223 92.0356 646.561 86.5178 659.854 85.7849H666.005C669.561 85.9674 673.085 86.5398 676.516 87.492V87.5093Z" fill="#3F3D56"/>
<path d="M331.456 200.34H328.424V292.997H331.456V200.34Z" fill="#575A89"/>
<path d="M340.881 200.34H337.84V292.997H340.881V200.34Z" fill="#575A89"/>
<path d="M321.713 388.352C324.577 388.352 326.899 386.028 326.899 383.161C326.899 380.295 324.577 377.971 321.713 377.971C318.848 377.971 316.526 380.295 316.526 383.161C316.526 386.028 318.848 388.352 321.713 388.352Z" fill="#575A89"/>
<path d="M303.345 288.712C303.345 288.712 308.514 284.504 313.054 285.962C317.595 287.419 329.423 288.876 331.491 296.307C333.558 303.739 331.491 385.498 331.491 385.498C331.491 385.498 321.463 388.084 318.715 386.791C315.966 385.498 316.285 373.204 316.285 373.204L315.484 300.687L303.345 288.712Z" fill="#1A7FA9"/>
<path opacity="0.1" d="M303.345 288.712C303.345 288.712 308.514 284.504 313.054 285.962C317.595 287.419 329.423 288.876 331.491 296.307C333.558 303.739 331.491 385.498 331.491 385.498C331.491 385.498 321.463 388.084 318.715 386.791C315.966 385.498 316.285 373.204 316.285 373.204L315.484 300.687L303.345 288.712Z" fill="black"/>
<path d="M350.418 381.308L328.648 386.136L328.424 382.265L328.277 305.989C328.273 302.424 327.448 298.908 325.868 295.713C324.287 292.518 321.993 289.73 319.163 287.565C319.163 287.565 330.44 287.419 339.081 291.315C340.924 292.178 342.776 292.962 344.672 293.661C347.024 294.523 350.211 296.376 350.418 300.032C350.685 304.791 351.59 351.934 351.917 369.1C351.997 373.214 351.492 377.318 350.418 381.291V381.308Z" fill="#1A7FA9"/>
<path d="M332.059 193.46H327.002V201.392H332.059V193.46Z" fill="#535461"/>
<path opacity="0.1" d="M332.059 193.46H327.002V201.392H332.059V193.46Z" fill="black"/>
<path d="M341.562 194.719H336.505V202.651H341.562V194.719Z" fill="#535461"/>
<path d="M341.562 194.736H336.505C335.561 194.761 334.643 195.052 333.857 195.575C333.071 196.098 332.448 196.832 332.059 197.693C331.99 197.849 331.921 198.004 331.852 198.176L330.741 197.099L328.424 194.857L327.002 193.486C327.002 193.486 336.341 188.701 341.562 194.736Z" fill="#535461"/>
<path d="M343.767 392.007C346.632 392.007 348.954 389.684 348.954 386.817C348.954 383.951 346.632 381.627 343.767 381.627C340.903 381.627 338.581 383.951 338.581 386.817C338.581 389.684 340.903 392.007 343.767 392.007Z" fill="#575A89"/>
<path d="M290.207 384.92C293.072 384.92 295.394 382.596 295.394 379.73C295.394 376.864 293.072 374.54 290.207 374.54C287.343 374.54 285.021 376.864 285.021 379.73C285.021 382.596 287.343 384.92 290.207 384.92Z" fill="#575A89"/>
<path d="M299.951 287.582C299.951 287.582 285.236 291.471 284.444 328.535C283.651 365.599 283.47 369.488 283.47 369.488C283.47 369.488 283.798 380.178 305.464 386.808H318.758L320.817 301.644C320.817 301.644 318.387 288.712 299.951 287.582Z" fill="#1A7FA9"/>
<path opacity="0.1" d="M298.659 345.045C298.659 345.045 294.885 293.221 315.217 292.988L317.121 294.85C317.121 294.85 299.305 288.393 298.659 345.045Z" fill="black"/>
<path d="M307.799 396.534C310.664 396.534 312.986 394.21 312.986 391.344C312.986 388.477 310.664 386.153 307.799 386.153C304.935 386.153 302.613 388.477 302.613 391.344C302.613 394.21 304.935 396.534 307.799 396.534Z" fill="#575A89"/>
<path opacity="0.1" d="M336.565 194.685H336.513C335.57 194.71 334.652 195 333.866 195.523C333.079 196.046 332.456 196.781 332.068 197.642C331.999 197.797 331.93 197.952 331.861 198.125L330.75 197.047C330.741 196.952 330.741 196.857 330.75 196.762C330.855 196.005 331.25 195.319 331.853 194.848C332.43 194.37 333.122 194.049 333.859 193.916C334.597 193.783 335.357 193.843 336.065 194.09C336.315 194.21 336.617 194.409 336.565 194.685Z" fill="black"/>
</g>
<defs>
<clipPath id="clip0_277_332">
<rect width="846" height="405" fill="white"/>
</clipPath>
</defs>
</svg>
